<?xml version="1.0" standalone="no"?>
<!DOCTYPE svg PUBLIC "-//W3C//DTD SVG 20010904//EN"
 "http://www.w3.org/TR/2001/REC-SVG-20010904/DTD/svg10.dtd">
<svg version="1.0" xmlns="http://www.w3.org/2000/svg"
 width="800.000000pt" height="800.000000pt" viewBox="0 0 800.000000 800.000000"
 preserveAspectRatio="xMidYMid meet">
<metadata>
Created by potrace 1.11, written by Peter Selinger 2001-2013
</metadata>
<g transform="translate(0.000000,800.000000) scale(0.100000,-0.100000)"
fill="#000000" stroke="none">
<path d="M3015 6845 c-163 -27 -284 -71 -400 -146 -234 -151 -395 -412 -450
-726 -8 -47 -15 -90 -15 -95 0 -5 19 4 43 20 120 82 271 147 394 170 66 12
212 8 283 -7 30 -6 64 -13 75 -15 11 -3 70 -19 130 -38 l110 -33 3 -1444 2
-1445 -27 26 c-47 44 -142 99 -214 124 -320 112 -664 -29 -808 -329 -53 -109
-69 -194 -66 -337 11 -467 220 -854 610 -1129 101 -71 115 -79 260 -151 179
-88 452 -173 630 -195 28 -4 60 -8 72 -10 152 -24 527 -25 663 0 14 2 54 9 90
15 36 5 74 12 85 14 442 96 791 291 1017 571 138 170 230 400 253 630 4 39 8
959 10 2045 2 1086 6 1995 9 2020 10 75 17 123 22 155 9 58 66 211 99 268 19
31 32 57 29 57 -15 0 -345 -173 -453 -237 -385 -229 -610 -443 -660 -628 -7
-28 -12 -588 -14 -1821 -2 -979 -6 -1785 -9 -1790 -3 -5 -9 -26 -12 -48 -23
-147 -108 -306 -226 -426 -171 -174 -356 -263 -655 -316 -54 -10 -309 -13
-370 -4 -217 30 -370 85 -527 191 -57 39 -134 112 -169 161 l-19 26 71 17
c185 42 345 169 430 340 77 158 72 10 72 1901 l0 1691 66 -12 c128 -24 157
-27 305 -30 391 -6 686 121 879 378 100 132 171 301 202 476 25 141 25 140
-47 81 -75 -60 -182 -115 -258 -131 -32 -7 -86 -9 -130 -6 -88 8 -92 8 -212
41 -127 34 -290 76 -319 81 -13 3 -46 9 -74 14 -58 12 -104 19 -177 27 -29 3
-64 8 -78 10 -63 12 -449 11 -525 -1z"/>
<path d="M4542 5925 c-30 -14 -70 -33 -90 -42 -20 -10 -68 -35 -107 -57 -374
-209 -618 -477 -697 -763 -21 -78 -22 -82 -23 -1429 -3 -1515 1 -1429 -76
-1591 -21 -45 -66 -116 -99 -157 -33 -42 -60 -79 -60 -82 0 -19 293 40 443 90
370 122 620 334 687 586 7 25 15 54 18 65 3 11 7 544 8 1185 3 1158 9 1749 18
1825 3 22 8 65 11 95 8 77 33 244 41 274 8 33 -5 33 -74 1z"/>
</g>
</svg>
