<?xml version="1.0" standalone="no"?>
<!DOCTYPE svg PUBLIC "-//W3C//DTD SVG 20010904//EN"
 "http://www.w3.org/TR/2001/REC-SVG-20010904/DTD/svg10.dtd">
<svg version="1.0" xmlns="http://www.w3.org/2000/svg"
 width="110.000000pt" height="110.000000pt" viewBox="0 0 110.000000 110.000000"
 preserveAspectRatio="xMidYMid meet">
<metadata>
Created by potrace 1.11, written by Peter Selinger 2001-2013
</metadata>
<g transform="translate(0.000000,110.000000) scale(0.100000,-0.100000)"
fill="#000000" stroke="none">
<path d="M507 894 c-4 -4 -7 -27 -7 -51 0 -43 0 -43 -37 -44 -21 -1 -43 -1
-49 0 -6 1 -12 -19 -13 -47 l-1 -48 47 -3 c26 -1 50 -4 52 -7 8 -8 0 -88 -9
-94 -5 -3 -22 -5 -37 -4 -15 1 -56 3 -90 3 l-63 1 0 50 0 50 -50 0 -50 0 0
-50 0 -50 -50 0 -50 0 0 -50 0 -50 50 0 50 0 0 -100 0 -100 50 0 50 0 0 -50 0
-50 250 0 250 0 0 50 0 50 50 0 50 0 0 100 0 100 50 0 50 0 0 50 0 50 -50 0
-50 0 0 50 0 50 -50 0 -50 0 0 -50 0 -50 -57 -1 c-32 0 -77 -1 -101 -2 l-43
-2 3 55 3 55 45 0 45 0 2 47 2 47 -47 -2 -47 -2 -3 -46 -3 -47 -41 -4 c-52 -5
-65 8 -60 61 3 34 8 41 26 41 12 0 28 6 35 13 11 10 13 10 7 0 -5 -9 0 -13 12
-13 17 0 20 7 20 48 l1 48 -43 3 c-23 1 -45 -1 -49 -5z m-207 -344 l0 -50 50
0 50 0 0 -50 0 -50 50 0 50 0 0 50 0 50 50 0 50 0 0 -50 0 -50 51 0 51 0 -4
53 -3 52 53 -3 52 -4 0 51 0 51 50 0 50 0 0 -50 0 -50 -51 0 -50 0 1 -72 c1
-40 1 -85 1 -100 l-1 -28 -100 0 -100 0 0 50 0 50 -50 0 -50 0 0 -50 0 -50
-100 0 -100 0 0 100 0 100 -50 0 -50 0 0 50 0 50 50 0 50 0 0 -50z"/>
</g>
</svg>
