<?xml version="1.0" standalone="no"?>
<!DOCTYPE svg PUBLIC "-//W3C//DTD SVG 20010904//EN"
 "http://www.w3.org/TR/2001/REC-SVG-20010904/DTD/svg10.dtd">
<svg version="1.0" xmlns="http://www.w3.org/2000/svg"
 width="500.000000pt" height="500.000000pt" viewBox="0 0 500.000000 500.000000"
 preserveAspectRatio="xMidYMid meet">
<metadata>
Created by potrace 1.11, written by Peter Selinger 2001-2013
</metadata>
<g transform="translate(0.000000,500.000000) scale(0.100000,-0.100000)"
fill="#000000" stroke="none">
<path d="M2407 4344 c-1 -1 -36 -4 -77 -8 -41 -3 -86 -8 -100 -11 -13 -3 -42
-7 -65 -11 -22 -3 -58 -10 -80 -15 -22 -6 -47 -12 -55 -13 -8 -2 -24 -7 -35
-11 -35 -12 -49 -17 -74 -21 -13 -3 -37 -12 -52 -20 -16 -8 -29 -12 -29 -9 0
3 -11 -2 -25 -11 -13 -8 -29 -13 -35 -9 -5 3 -10 2 -10 -2 0 -5 -28 -22 -62
-37 -56 -25 -216 -117 -243 -138 -5 -5 -41 -32 -80 -60 -38 -29 -75 -59 -82
-67 -7 -9 -13 -13 -13 -8 0 7 -160 -156 -202 -207 -12 -15 -30 -36 -38 -45 -8
-9 -35 -45 -59 -81 -24 -36 -47 -67 -50 -70 -3 -3 -22 -35 -41 -72 -19 -37
-38 -68 -42 -68 -5 0 -8 -5 -8 -11 0 -5 -10 -31 -21 -57 -12 -26 -29 -65 -39
-87 -10 -23 -25 -60 -32 -83 -7 -23 -17 -42 -21 -42 -5 0 -6 -4 -3 -9 4 -5 -2
-36 -13 -70 -10 -33 -16 -63 -13 -66 3 -3 1 -5 -4 -5 -5 0 -10 -18 -11 -41 -1
-26 -8 -46 -20 -56 -10 -8 -12 -11 -4 -7 11 6 13 0 8 -32 -12 -76 -21 -180
-21 -261 -1 -48 -5 -83 -11 -83 -5 0 -5 -4 2 -8 12 -8 21 -87 10 -98 -3 -4 -2
-15 4 -26 6 -10 10 -29 9 -41 -1 -12 -1 -24 0 -27 6 -17 23 -113 24 -140 0
-14 4 -27 8 -31 4 -3 9 -18 11 -35 2 -16 6 -34 9 -39 10 -17 37 -115 32 -115
-3 0 2 -7 11 -16 9 -9 14 -22 11 -30 -3 -7 0 -14 5 -16 5 -2 11 -13 12 -26 0
-12 4 -22 7 -22 8 0 34 -66 31 -76 -2 -4 2 -10 7 -13 5 -3 19 -23 30 -43 15
-26 17 -38 9 -42 -8 -3 -7 -5 3 -6 19 -1 73 -88 64 -102 -4 -6 -2 -8 3 -5 6 4
20 -8 32 -26 29 -46 53 -79 74 -102 9 -10 15 -25 12 -33 -2 -7 0 -10 5 -7 6 4
22 -8 37 -26 15 -18 59 -64 98 -103 38 -39 69 -74 67 -78 -1 -5 1 -7 5 -6 13
4 72 -35 67 -44 -3 -4 0 -8 5 -8 6 0 19 -7 28 -15 10 -8 27 -22 38 -31 11 -8
15 -13 9 -10 -6 3 -11 -1 -11 -9 0 -12 3 -12 14 -3 9 7 17 8 21 2 4 -5 19 -15
35 -23 15 -8 27 -18 27 -23 0 -4 4 -8 9 -8 6 0 38 -17 73 -37 35 -21 68 -38
73 -38 6 0 9 -8 9 -18 -2 -15 1 -16 14 -5 12 10 16 10 19 0 3 -6 9 -10 14 -6
5 3 9 0 9 -7 0 -7 3 -9 6 -6 4 3 16 1 28 -5 11 -7 26 -13 31 -14 6 -1 30 -11
55 -22 62 -28 188 -65 270 -79 19 -3 38 -11 42 -17 5 -7 8 -6 8 3 0 9 4 10 13
4 6 -6 19 -10 27 -10 8 -1 53 -4 100 -9 47 -4 100 -7 118 -6 18 0 30 -3 27 -8
-3 -4 10 -5 28 -1 46 11 50 11 66 -2 12 -9 13 -9 7 1 -5 8 -1 11 14 9 11 -2
43 0 70 3 29 4 50 2 50 -3 0 -5 6 -5 13 1 7 6 38 13 69 15 31 3 62 8 68 12 7
4 16 1 21 -6 7 -11 9 -10 9 5 0 11 3 17 6 14 3 -4 19 -2 35 2 20 6 29 5 29 -3
0 -7 4 -7 9 2 11 17 108 44 124 34 7 -3 9 -2 4 2 -9 10 63 37 81 30 7 -3 11
-1 7 4 -3 5 12 15 32 22 21 7 52 20 70 30 18 10 41 16 52 14 15 -3 18 0 14 12
-5 13 -2 15 11 10 10 -4 15 -3 11 3 -3 6 3 10 14 10 12 0 21 5 21 10 0 6 5 10
10 10 6 0 24 10 39 21 17 13 34 18 42 14 6 -5 10 -4 7 1 -3 5 0 15 8 22 8 7
14 10 14 7 0 -2 8 2 18 9 9 8 49 38 87 67 93 71 84 63 182 159 47 47 82 79 78
71 -5 -10 -4 -12 4 -7 6 4 9 11 6 16 -3 5 10 25 30 45 20 19 33 35 29 35 -4 0
5 11 19 24 14 13 23 27 20 30 -4 3 -2 6 4 6 5 0 15 12 21 26 7 15 17 22 24 18
7 -5 8 -3 3 6 -5 8 1 20 16 32 13 11 18 17 10 13 -9 -5 -8 1 4 19 9 14 20 24
24 21 4 -2 8 2 8 9 0 23 45 106 54 101 5 -4 6 0 4 7 -3 8 8 40 23 73 16 33 35
77 41 98 7 20 17 35 22 32 5 -4 6 1 3 10 -4 8 -1 22 6 30 7 8 9 15 5 15 -4 0
-2 6 4 13 6 8 8 17 4 20 -3 4 -1 7 6 7 7 0 9 5 6 10 -4 6 -1 26 5 46 7 19 13
41 14 47 2 7 6 28 10 47 25 120 33 186 35 263 1 34 4 46 13 41 7 -5 8 -3 3 7
-5 7 -11 70 -13 139 -6 205 -7 210 -13 210 -3 0 -5 12 -5 28 1 15 -2 32 -5 37
-11 16 -30 116 -24 125 3 5 2 10 -2 12 -5 1 -25 55 -47 118 -21 63 -49 139
-63 168 -13 29 -21 58 -17 64 4 6 3 8 -3 5 -11 -7 -76 105 -68 117 3 3 2 4 -1
2 -4 -3 -28 29 -56 70 -172 265 -441 501 -725 640 -74 36 -318 131 -318 124 0
-1 -7 1 -15 4 -8 3 -51 12 -95 20 -44 9 -89 17 -100 20 -61 12 -368 29 -378
20z m35 -398 c19 12 83 12 90 0 5 -7 8 -6 8 3 0 11 3 11 15 1 11 -9 15 -9 15
-1 0 7 4 10 10 6 5 -3 26 -6 47 -7 21 -1 41 -6 45 -12 5 -8 8 -8 8 0 0 6 13 9
32 6 29 -4 30 -6 13 -18 -10 -8 -15 -14 -10 -14 5 0 17 7 27 17 17 15 18 15
18 -3 0 -13 3 -15 8 -7 10 15 52 9 64 -9 6 -10 8 -10 8 -1 0 10 7 10 28 2 15
-6 38 -13 52 -16 13 -2 29 -8 35 -13 5 -4 15 -9 20 -9 19 -2 50 -13 105 -38
30 -14 65 -29 78 -34 13 -5 20 -14 17 -19 -4 -6 -3 -10 2 -9 20 4 41 -2 59
-17 17 -14 17 -15 1 -10 -11 4 -16 2 -12 -5 4 -5 15 -7 24 -4 10 3 24 -1 31
-10 7 -8 18 -15 25 -15 6 0 30 -17 53 -38 23 -22 42 -36 42 -33 0 3 10 -4 23
-16 12 -12 60 -57 107 -101 77 -74 83 -81 70 -99 -14 -17 -14 -17 4 -3 15 12
20 12 24 2 2 -7 15 -26 29 -42 14 -17 21 -30 17 -30 -4 0 0 -6 11 -13 12 -9
15 -19 10 -28 -5 -8 -5 -11 0 -7 11 10 27 -9 69 -84 21 -37 34 -73 30 -79 -4
-8 -3 -9 5 -5 7 5 16 -4 23 -26 7 -18 11 -36 10 -40 -1 -5 2 -8 7 -8 8 0 38
-91 32 -99 -1 -2 2 -7 8 -10 5 -4 12 -21 16 -38 3 -18 9 -42 14 -55 4 -13 7
-33 6 -45 -1 -12 2 -20 7 -17 4 3 8 -3 9 -13 1 -33 7 -78 14 -108 21 -96 9
-327 -25 -490 -20 -99 -22 -105 -33 -98 -6 3 -7 1 -3 -5 7 -11 -24 -110 -51
-162 -7 -14 -13 -31 -13 -37 0 -7 -4 -13 -9 -13 -5 0 -12 -12 -15 -26 -9 -34
-60 -116 -69 -109 -4 3 -5 2 -2 -1 9 -12 -26 -65 -38 -58 -7 4 -9 4 -5 -1 13
-14 -68 -116 -164 -210 -91 -88 -252 -213 -269 -207 -5 1 -9 -2 -9 -6 0 -14
-128 -74 -141 -66 -7 4 -9 3 -6 -3 8 -13 -70 -46 -85 -37 -6 4 -8 2 -5 -3 4
-6 -5 -14 -21 -18 -15 -5 -34 -10 -42 -12 -8 -3 -24 -5 -35 -6 -11 -1 -22 -5
-25 -9 -7 -8 -151 -38 -225 -45 -117 -12 -314 -6 -403 12 -163 35 -267 68
-392 128 -100 48 -264 159 -252 172 4 5 2 5 -4 2 -25 -14 -285 252 -276 284 1
5 -2 9 -7 9 -4 0 -25 25 -45 55 -20 30 -34 55 -31 55 3 0 -3 10 -15 22 -18 19
-22 31 -19 54 0 3 -7 11 -16 18 -9 7 -18 24 -18 38 -1 14 -5 24 -9 22 -4 -2
-9 6 -13 18 -3 13 -10 32 -15 43 -15 33 -50 144 -48 152 0 5 -1 15 -4 23 -15
40 -34 140 -26 140 5 0 4 9 -1 19 -15 26 -21 231 -7 231 6 0 6 4 -1 11 -14 14
-5 41 11 32 6 -4 5 1 -2 10 -15 18 -13 68 3 79 7 5 6 8 -1 8 -6 0 -9 13 -6 30
2 16 7 28 11 26 3 -2 6 8 7 22 1 45 14 96 27 104 9 6 9 8 0 8 -7 0 -10 7 -7
15 4 8 10 12 15 9 5 -3 6 2 3 10 -7 18 41 152 65 180 9 11 11 16 4 12 -13 -7
35 85 50 95 5 3 8 9 7 13 -2 12 71 126 81 126 6 0 7 5 4 10 -3 6 -2 10 3 10 5
0 12 9 15 21 4 15 11 19 25 14 11 -3 23 -1 27 4 3 7 0 8 -9 5 -18 -7 -20 4 -7
25 5 7 13 11 19 7 6 -3 14 -1 18 5 4 8 3 9 -4 5 -56 -34 104 130 188 194 25
19 47 37 50 40 13 14 90 59 90 53 0 -4 7 2 15 13 8 10 15 15 15 11 0 -5 7 -2
15 7 9 8 23 12 32 9 10 -4 14 -2 10 5 -9 13 101 65 120 57 8 -2 16 2 19 9 5
12 66 38 124 52 8 2 35 8 60 15 25 6 56 13 70 15 14 3 33 7 44 10 11 4 16 2
12 -4 -3 -6 -1 -14 5 -18 7 -4 9 -3 5 4 -7 12 4 21 34 27 14 3 18 0 13 -8 -5
-9 -3 -9 8 0 17 13 82 21 87 10 2 -4 9 -4 14 -1z"/>
<path d="M2346 3878 c3 -5 10 -6 15 -3 13 9 11 12 -6 12 -8 0 -12 -4 -9 -9z"/>
<path d="M2095 3860 c3 -5 8 -10 11 -10 2 0 4 5 4 10 0 6 -5 10 -11 10 -5 0
-7 -4 -4 -10z"/>
<path d="M2855 3861 c-3 -5 -2 -12 3 -15 5 -3 9 1 9 9 0 17 -3 19 -12 6z"/>
<path d="M2890 3859 c0 -5 5 -7 10 -4 6 3 10 8 10 11 0 2 -4 4 -10 4 -5 0 -10
-5 -10 -11z"/>
<path d="M1996 3838 c3 -5 10 -6 15 -3 13 9 11 12 -6 12 -8 0 -12 -4 -9 -9z"/>
<path d="M2976 3813 c-6 -14 -5 -15 5 -6 7 7 10 15 7 18 -3 3 -9 -2 -12 -12z"/>
<path d="M1894 3796 c1 -8 5 -18 8 -22 4 -3 5 1 4 10 -1 8 -5 18 -8 22 -4 3
-5 -1 -4 -10z"/>
<path d="M1945 3800 c-3 -6 1 -7 9 -4 18 7 21 14 7 14 -6 0 -13 -4 -16 -10z"/>
<path d="M1855 3780 c3 -5 8 -10 11 -10 2 0 4 5 4 10 0 6 -5 10 -11 10 -5 0
-7 -4 -4 -10z"/>
<path d="M3174 3742 c4 -3 14 -7 22 -8 9 -1 13 0 10 4 -4 3 -14 7 -22 8 -9 1
-13 0 -10 -4z"/>
<path d="M1735 3699 c-3 -4 2 -6 10 -5 21 3 28 13 10 13 -9 0 -18 -4 -20 -8z"/>
<path d="M3353 3625 c0 -8 4 -12 9 -9 5 3 6 10 3 15 -9 13 -12 11 -12 -6z"/>
<path d="M1615 3619 c-3 -4 2 -6 10 -5 21 3 28 13 10 13 -9 0 -18 -4 -20 -8z"/>
<path d="M1535 3481 c-3 -5 -2 -12 3 -15 5 -3 9 1 9 9 0 17 -3 19 -12 6z"/>
<path d="M2355 3404 c-83 -15 -202 -49 -218 -63 -7 -5 -15 -10 -20 -10 -13 -1
-70 -32 -127 -69 -69 -45 -171 -142 -218 -207 -20 -27 -39 -52 -42 -55 -5 -5
-38 -63 -51 -90 -35 -76 -57 -137 -69 -197 -7 -32 -17 -64 -22 -70 -7 -8 -7
-13 -1 -13 6 0 7 -19 3 -47 -7 -43 -4 -187 4 -223 1 -8 6 -33 10 -55 5 -22 14
-59 22 -83 8 -24 11 -48 8 -54 -4 -7 -2 -8 4 -4 7 4 12 2 12 -4 0 -6 9 -30 20
-52 23 -49 24 -52 8 -42 -7 4 -8 3 -4 -5 4 -6 11 -9 16 -6 10 6 52 -64 45 -76
-4 -5 1 -9 9 -9 8 0 18 -9 21 -20 3 -11 11 -20 17 -20 6 0 8 -3 5 -7 -4 -3 2
-13 14 -21 11 -8 18 -20 15 -29 -3 -8 -1 -11 5 -8 13 9 41 -14 32 -28 -3 -5
-2 -7 3 -4 6 3 32 -15 59 -39 27 -25 53 -46 59 -47 13 -2 41 -28 41 -38 0 -4
4 -11 9 -16 5 -5 6 -3 2 5 -4 6 -4 12 -1 12 9 0 67 -30 83 -43 8 -6 21 -12 30
-13 30 -4 87 -29 100 -44 8 -8 11 -9 7 -2 -7 15 -8 15 35 2 41 -13 112 -23
158 -24 17 0 32 -5 32 -11 0 -5 4 -4 9 3 11 17 21 17 32 0 5 -7 9 -8 9 -3 0 6
9 11 19 11 11 0 17 -5 13 -11 -3 -5 1 -4 10 3 13 10 17 10 21 0 4 -10 6 -10 6
0 1 6 8 12 17 12 9 0 13 -5 9 -12 -4 -7 0 -5 9 6 8 10 18 16 23 13 8 -5 105
17 123 28 6 3 10 1 10 -6 0 -7 6 -5 13 6 8 10 19 15 24 12 6 -4 16 -1 22 7 11
13 44 26 65 25 5 -1 12 4 15 9 3 5 38 29 76 52 39 24 99 70 134 104 35 34 67
60 73 58 5 -1 7 2 3 7 -8 13 26 52 38 44 6 -3 7 -1 4 4 -4 6 4 26 16 44 53 78
102 190 122 274 4 17 9 38 11 48 12 49 14 64 16 113 2 30 7 54 13 54 7 0 7 3
0 8 -5 4 -11 23 -11 42 -5 112 -28 226 -62 310 -5 14 -10 27 -10 30 0 8 -74
134 -89 152 -8 9 -12 22 -7 29 4 7 3 10 -3 6 -6 -4 -18 2 -28 13 -10 11 -15
20 -12 20 4 0 -22 27 -57 59 -35 33 -61 63 -58 67 4 4 2 4 -4 1 -6 -3 -26 7
-45 22 -89 73 -240 137 -397 167 -55 11 -222 9 -287 -2z"/>
<path d="M1370 3239 c0 -5 5 -7 10 -4 6 3 10 8 10 11 0 2 -4 4 -10 4 -5 0 -10
-5 -10 -11z"/>
<path d="M1109 2823 c-13 -16 -12 -17 4 -4 9 7 17 15 17 17 0 8 -8 3 -21 -13z"/>
<path d="M1519 2553 c-13 -16 -12 -17 4 -4 9 7 17 15 17 17 0 8 -8 3 -21 -13z"/>
<path d="M3473 2475 c0 -8 4 -12 9 -9 5 3 6 10 3 15 -9 13 -12 11 -12 -6z"/>
<path d="M3876 2398 c3 -5 10 -6 15 -3 13 9 11 12 -6 12 -8 0 -12 -4 -9 -9z"/>
<path d="M3276 1967 c3 -10 9 -15 12 -12 3 3 0 11 -7 18 -10 9 -11 8 -5 -6z"/>
<path d="M3190 1859 c0 -5 5 -7 10 -4 6 3 10 8 10 11 0 2 -4 4 -10 4 -5 0 -10
-5 -10 -11z"/>
<path d="M1955 1700 c-3 -5 -1 -10 4 -10 6 0 11 5 11 10 0 6 -2 10 -4 10 -3 0
-8 -4 -11 -10z"/>
<path d="M2976 1702 c-3 -5 1 -9 9 -9 8 0 12 4 9 9 -3 4 -7 8 -9 8 -2 0 -6 -4
-9 -8z"/>
<path d="M2055 1660 c-3 -5 -1 -10 4 -10 6 0 11 5 11 10 0 6 -2 10 -4 10 -3 0
-8 -4 -11 -10z"/>
<path d="M2189 1603 c-13 -16 -12 -17 4 -4 9 7 17 15 17 17 0 8 -8 3 -21 -13z"/>
<path d="M2825 1600 c-3 -6 1 -7 9 -4 18 7 21 14 7 14 -6 0 -13 -4 -16 -10z"/>
<path d="M2447 1559 c7 -7 15 -10 18 -7 3 3 -2 9 -12 12 -14 6 -15 5 -6 -5z"/>
<path d="M2533 1529 c-2 -23 3 -25 10 -4 4 8 3 16 -1 19 -4 3 -9 -4 -9 -15z"/>
<path d="M910 1440 c0 -5 5 -10 11 -10 5 0 7 5 4 10 -3 6 -8 10 -11 10 -2 0
-4 -4 -4 -10z"/>
<path d="M1293 1055 c0 -8 4 -12 9 -9 5 3 6 10 3 15 -9 13 -12 11 -12 -6z"/>
<path d="M3536 942 c-2 -4 -1 -14 4 -22 7 -11 9 -9 7 8 -1 24 -3 26 -11 14z"/>
<path d="M1636 822 c-3 -5 1 -9 9 -9 8 0 12 4 9 9 -3 4 -7 8 -9 8 -2 0 -6 -4
-9 -8z"/>
<path d="M3295 799 c-3 -4 2 -6 10 -5 21 3 28 13 10 13 -9 0 -18 -4 -20 -8z"/>
<path d="M1580 786 c0 -2 8 -10 18 -17 15 -13 16 -12 3 4 -13 16 -21 21 -21
13z"/>
<path d="M3155 739 c-3 -4 2 -6 10 -5 21 3 28 13 10 13 -9 0 -18 -4 -20 -8z"/>
<path d="M3090 719 c0 -5 5 -7 10 -4 6 3 10 8 10 11 0 2 -4 4 -10 4 -5 0 -10
-5 -10 -11z"/>
<path d="M1975 700 c-3 -5 -1 -10 4 -10 6 0 11 5 11 10 0 6 -2 10 -4 10 -3 0
-8 -4 -11 -10z"/>
<path d="M1859 673 c-13 -16 -12 -17 4 -4 16 13 21 21 13 21 -2 0 -10 -8 -17
-17z"/>
<path d="M2050 666 c0 -2 7 -7 16 -10 8 -3 12 -2 9 4 -6 10 -25 14 -25 6z"/>
<path d="M2933 663 c4 -3 1 -13 -6 -22 -11 -14 -10 -14 5 -2 16 12 16 31 1 31
-4 0 -3 -3 0 -7z"/>
<path d="M2295 640 c-3 -5 -1 -10 4 -10 6 0 11 5 11 10 0 6 -2 10 -4 10 -3 0
-8 -4 -11 -10z"/>
<path d="M2573 625 c0 -8 4 -12 9 -9 5 3 6 10 3 15 -9 13 -12 11 -12 -6z"/>
</g>
</svg>
