<?xml version="1.0" standalone="no"?>
<!DOCTYPE svg PUBLIC "-//W3C//DTD SVG 20010904//EN"
 "http://www.w3.org/TR/2001/REC-SVG-20010904/DTD/svg10.dtd">
<svg version="1.0" xmlns="http://www.w3.org/2000/svg"
 width="1000.000000pt" height="1000.000000pt" viewBox="0 0 1000.000000 1000.000000"
 preserveAspectRatio="xMidYMid meet">
<metadata>
Created by potrace 1.11, written by Peter Selinger 2001-2013
</metadata>
<g transform="translate(0.000000,1000.000000) scale(0.100000,-0.100000)"
fill="#000000" stroke="none">
<path d="M3061 6939 l-2599 -2599 10 -36 c5 -20 11 -44 13 -53 2 -9 26 -99 54
-201 27 -102 70 -261 95 -355 25 -93 62 -228 81 -300 54 -201 124 -461 150
-560 13 -49 38 -142 55 -205 17 -63 46 -171 64 -240 19 -69 46 -170 61 -225
15 -55 28 -107 30 -115 2 -8 11 -40 19 -70 8 -30 24 -91 36 -135 12 -44 46
-172 77 -285 30 -113 57 -212 58 -220 12 -51 146 -544 149 -547 6 -7 7786 -6
7792 0 5 5 8 5009 5 7363 l-1 431 -122 32 c-68 18 -154 42 -192 53 -38 11 -76
21 -85 23 -16 3 -165 43 -361 96 -58 15 -188 50 -290 77 -102 27 -221 59 -265
72 -84 22 -329 88 -355 94 -8 2 -67 18 -130 35 -104 29 -323 87 -360 96 -8 2
-58 16 -110 30 -161 44 -1186 319 -1248 335 l-32 8 -2599 -2599z m3184 1336
c11 -2 112 -29 225 -60 217 -60 333 -91 390 -105 19 -4 94 -24 165 -43 242
-66 360 -98 377 -102 9 -2 51 -13 93 -25 42 -12 84 -23 93 -25 9 -2 44 -12 77
-21 33 -9 67 -18 75 -20 8 -2 58 -15 110 -29 52 -15 111 -30 130 -35 111 -27
160 -44 161 -54 1 -15 1 -5856 0 -5881 -1 -20 -7 -20 -2948 -18 -1622 1 -2951
2 -2954 2 -4 1 -12 22 -19 49 -7 26 -24 88 -37 137 -14 50 -26 97 -28 105 -3
17 -99 375 -115 430 -5 19 -27 100 -49 180 -21 80 -59 222 -84 315 -25 94 -57
213 -71 265 -13 52 -45 170 -70 262 -25 92 -48 178 -50 190 -3 13 -18 68 -34
123 l-29 100 2164 2166 2165 2166 121 -34 c67 -18 131 -35 142 -38z"/>
<path d="M6791 6416 l-534 -534 0 -1070 0 -1070 -1070 0 -1069 1 -534 -534
-534 -534 2132 1 c1173 1 2135 2 2138 3 3 1 8 4271 5 4271 0 0 -240 -240 -534
-534z"/>
</g>
</svg>
