<?xml version="1.0" standalone="no"?>
<!DOCTYPE svg PUBLIC "-//W3C//DTD SVG 20010904//EN"
 "http://www.w3.org/TR/2001/REC-SVG-20010904/DTD/svg10.dtd">
<svg version="1.0" xmlns="http://www.w3.org/2000/svg"
 width="500.000000pt" height="500.000000pt" viewBox="0 0 500.000000 500.000000"
 preserveAspectRatio="xMidYMid meet">
<metadata>
Created by potrace 1.11, written by Peter Selinger 2001-2013
</metadata>
<g transform="translate(0.000000,500.000000) scale(0.100000,-0.100000)"
fill="#000000" stroke="none">
<path d="M2090 4674 c-47 -13 -94 -26 -105 -28 -11 -3 -164 -43 -340 -91 -487
-131 -722 -194 -1047 -281 l-298 -79 0 -1947 0 -1948 1948 0 1948 0 41 158
c52 195 76 285 253 947 79 292 158 588 176 659 l34 129 -1254 1253 c-689 690
-1258 1254 -1262 1253 -5 0 -47 -12 -94 -25z m131 -1345 l-332 -333 -444 444
c-472 472 -454 449 -382 464 19 4 185 49 417 112 30 8 114 30 185 49 72 19
186 50 255 69 l125 34 254 -253 255 -254 -333 -332z m-866 -471 l197 -198
-380 -380 c-208 -209 -383 -380 -388 -380 -7 0 -11 1299 -5 1504 1 27 16 15
190 -160 103 -104 277 -278 386 -386z m2176 -175 l636 -638 -68 -255 c-38
-140 -71 -264 -74 -275 -2 -11 -25 -96 -50 -190 -26 -93 -48 -179 -51 -190 -2
-11 -12 -46 -22 -78 l-17 -57 -830 830 -830 830 330 330 c181 181 332 330 335
330 3 0 291 -287 641 -637z m-869 -1133 c504 -504 764 -770 752 -771 -11 0
-607 -1 -1327 -2 l-1307 -2 -1 25 c-1 14 -1 112 -1 219 l0 194 554 554 c304
304 555 553 557 553 2 0 350 -346 773 -770z"/>
</g>
</svg>
