<?xml version="1.0" standalone="no"?>
<!DOCTYPE svg PUBLIC "-//W3C//DTD SVG 20010904//EN"
 "http://www.w3.org/TR/2001/REC-SVG-20010904/DTD/svg10.dtd">
<svg version="1.0" xmlns="http://www.w3.org/2000/svg"
 width="800.000000pt" height="800.000000pt" viewBox="0 0 800.000000 800.000000"
 preserveAspectRatio="xMidYMid meet">
<metadata>
Created by potrace 1.11, written by Peter Selinger 2001-2013
</metadata>
<g transform="translate(0.000000,800.000000) scale(0.100000,-0.100000)"
fill="#000000" stroke="none">
<path d="M3778 7145 c-1 -1 -34 -5 -73 -9 -78 -6 -207 -23 -245 -31 -14 -3
-43 -8 -65 -11 -69 -10 -299 -72 -417 -113 -145 -49 -192 -69 -322 -130 -58
-28 -108 -49 -110 -48 -2 1 -12 -5 -22 -14 -11 -9 -39 -27 -64 -39 -25 -13
-70 -38 -100 -57 -657 -417 -1108 -981 -1346 -1686 -44 -129 -97 -334 -109
-417 -4 -24 -8 -47 -10 -50 -2 -3 -6 -29 -10 -59 -4 -30 -9 -63 -11 -75 -26
-134 -25 -726 1 -826 2 -8 7 -33 10 -55 3 -23 8 -52 10 -65 3 -14 8 -41 11
-60 12 -75 66 -281 105 -400 73 -221 193 -479 303 -650 32 -50 100 -153 108
-165 178 -241 422 -499 608 -644 58 -45 112 -87 120 -94 20 -16 190 -129 215
-143 11 -6 45 -25 75 -43 320 -184 745 -332 1085 -377 28 -3 52 -7 55 -9 30
-18 574 -27 715 -13 88 9 212 26 245 33 14 3 41 8 60 11 19 3 73 14 120 26 46
11 89 21 95 23 31 6 113 31 210 65 312 107 595 257 860 454 254 190 534 481
716 746 48 69 189 302 194 320 1 3 25 54 54 114 63 130 81 176 133 326 34 100
79 256 92 324 16 76 27 134 30 156 3 14 8 45 11 70 4 25 9 54 11 65 26 137 25
725 -1 825 -2 8 -7 33 -10 55 -3 23 -7 52 -10 65 -15 77 -27 138 -31 159 -26
131 -119 413 -184 562 -50 114 -163 328 -210 399 -9 14 -34 52 -56 85 -21 33
-42 65 -46 70 -221 294 -410 492 -648 676 -128 99 -234 170 -385 256 -223 129
-584 269 -830 324 -261 57 -435 76 -727 77 -113 0 -208 -1 -210 -3z m482 -709
c14 -2 48 -7 75 -11 97 -12 121 -17 243 -46 109 -27 258 -73 317 -99 11 -4 45
-19 75 -32 522 -221 992 -671 1235 -1183 68 -145 145 -355 170 -465 2 -8 10
-45 19 -81 8 -36 18 -88 22 -115 3 -27 8 -58 10 -69 25 -128 25 -529 0 -675
-3 -14 -7 -41 -10 -60 -9 -62 -35 -184 -52 -240 -28 -96 -76 -245 -83 -255 -4
-5 -20 -41 -36 -80 -60 -145 -166 -331 -267 -468 -345 -468 -841 -800 -1399
-936 -139 -34 -188 -42 -339 -58 -41 -4 -156 -7 -255 -7 -158 0 -230 4 -325
19 -14 2 -45 7 -70 10 -25 4 -83 16 -130 27 -47 11 -92 21 -100 23 -31 7 -215
67 -225 74 -5 4 -28 13 -50 20 -176 60 -482 245 -670 405 -384 328 -676 796
-790 1266 -10 43 -44 210 -49 240 -22 150 -28 461 -13 610 72 687 432 1313
994 1728 298 219 695 386 1043 438 19 3 46 7 60 10 14 2 61 7 105 10 44 4 82
8 84 10 5 4 383 -4 411 -10z"/>
</g>
</svg>
