<svg id="Layer_1" data-name="Layer 1" xmlns="http://www.w3.org/2000/svg" xmlns:xlink="http://www.w3.org/1999/xlink" viewBox="0 0 800.3 777.3"><defs><style>.cls-1{fill:none;}.cls-2{fill:#323232;}.cls-3{clip-path:url(#clip-path);}.cls-4{opacity:0.3;}.cls-4,.cls-5{isolation:isolate;fill:url(#linear-gradient);}.cls-5{opacity:0.7;}</style><clipPath id="clip-path" transform="translate(0 -11.3)"><path class="cls-1" d="M682,127,670.4,658.8A14.65,14.65,0,0,1,655.9,673H144.4a14.65,14.65,0,0,1-14.5-14.2L118.3,127H682"/></clipPath><linearGradient id="linear-gradient" x1="400.3" y1="127" x2="400.3" y2="437.29" gradientTransform="matrix(1, 0, 0, -1, 0, 800)" gradientUnits="userSpaceOnUse"><stop offset="0" stop-color="#ff5559"/><stop offset="0.05" stop-color="#ff6159"/><stop offset="0.28" stop-color="#ff9157"/><stop offset="0.49" stop-color="#ffb756"/><stop offset="0.69" stop-color="#ffd256"/><stop offset="0.87" stop-color="#ffe255"/><stop offset="1" stop-color="#ffe855"/></linearGradient></defs><title>drink_icon_lemonade</title><path class="cls-2" d="M741.2,69.1,728.3,660A72.42,72.42,0,0,1,656,730.8H144.4A72.29,72.29,0,0,1,72.1,660L59.1,69.1H741.2m59.1-57.8H0L1.3,70.4,14.2,661.3A130.11,130.11,0,0,0,144.4,788.6H656A130.11,130.11,0,0,0,786.2,661.3L799,70.4l1.3-59.1Z" transform="translate(0 -11.3)"/><g id="Lemonade"><g class="cls-3"><path class="cls-4" d="M676.1,400s-139.6-83.9-275.7,0-275.9,0-275.9,0V673H676.1Z" transform="translate(0 -11.3)"/><path class="cls-5" d="M124.5,400s139.6-83.9,275.7,0,275.9,0,275.9,0V673H124.5Z" transform="translate(0 -11.3)"/></g></g></svg>