<svg xmlns="http://www.w3.org/2000/svg" xmlns:xlink="http://www.w3.org/1999/xlink" viewBox="1529 0 324 166">
  <defs>
    <style>
      .cls-1 {
        clip-path: url(#clip-Youth_Project);
      }

      .cls-2 {
        fill: #86d889;
      }

      .cls-3 {
        fill: #fff;
      }
    </style>
    <clipPath id="clip-Youth_Project">
      <rect x="1529" width="324" height="166"/>
    </clipPath>
  </defs>
  <g id="Youth_Project" data-name="Youth Project" class="cls-1">
    <rect class="cls-3" x="1529" width="324" height="166"/>
    <rect id="Rectangle_6" data-name="Rectangle 6" class="cls-2" width="324" height="166" transform="translate(1529)"/>
    <g id="Full_Logo_1_" transform="translate(1606.945 47)">
      <g id="Type_1_" transform="translate(46.224)">
        <path id="Path_1" data-name="Path 1" class="cls-3" d="M105.381,31.331l3.876-13.082h6.057l-8.479,24.323-.485,1.114A6.415,6.415,0,0,1,100.1,47.8a8.757,8.757,0,0,1-2.471-.388V43.153H98.5a4.457,4.457,0,0,0,2.374-.485,3.58,3.58,0,0,0,1.26-1.6l.678-1.744L95.4,18.2h6.057Z" transform="translate(-95.4 -9.382)"/>
        <path id="Path_2" data-name="Path 2" class="cls-3" d="M136,28.208a12.091,12.091,0,0,1,1.211-5.572,8.8,8.8,0,0,1,3.489-3.779,10.307,10.307,0,0,1,5.281-1.357,9.583,9.583,0,0,1,6.977,2.616,10.465,10.465,0,0,1,3,7.074l.048,1.454a11.157,11.157,0,0,1-2.713,7.8,10.538,10.538,0,0,1-14.536,0,11.285,11.285,0,0,1-2.713-7.946v-.291Zm5.62.388a8.171,8.171,0,0,0,1.114,4.6,3.766,3.766,0,0,0,3.246,1.6,3.819,3.819,0,0,0,3.2-1.55,8.587,8.587,0,0,0,1.163-5.039,7.618,7.618,0,0,0-1.163-4.555,4.046,4.046,0,0,0-6.444,0A8.761,8.761,0,0,0,141.62,28.6Z" transform="translate(-116.328 -9.021)"/>
        <path id="Path_3" data-name="Path 3" class="cls-3" d="M195.091,37.145a7.027,7.027,0,0,1-5.766,2.52,6.656,6.656,0,0,1-5.184-1.938c-1.211-1.308-1.793-3.2-1.841-5.717V18.2h5.669V31.815c0,2.18,1.018,3.295,3,3.295a4.11,4.11,0,0,0,3.925-1.987V18.2h5.669V39.277h-5.33Z" transform="translate(-140.195 -9.382)"/>
        <path id="Path_4" data-name="Path 4" class="cls-3" d="M233.321,7.6v5.184h3.585V16.9h-3.585V27.417a2.637,2.637,0,0,0,.436,1.7,2.219,2.219,0,0,0,1.7.485,8.329,8.329,0,0,0,1.647-.145v4.264a11.485,11.485,0,0,1-3.392.485c-3.925,0-5.96-1.987-6.057-5.96V16.9H224.6V12.784h3.052V7.6Z" transform="translate(-162 -3.918)"/>
        <path id="Path_5" data-name="Path 5" class="cls-3" d="M261.92,11.144a7.039,7.039,0,0,1,5.62-2.665c4.555,0,6.88,2.665,6.929,7.946V29.9h-5.62V16.571a3.81,3.81,0,0,0-.775-2.665,3.358,3.358,0,0,0-2.568-.872,3.831,3.831,0,0,0-3.585,1.89V29.9H256.3V0h5.62Z" transform="translate(-178.34)"/>
        <path id="Path_6" data-name="Path 6" class="cls-3" d="M118.745,96.7a12.432,12.432,0,0,1-2.229,7.8,7.047,7.047,0,0,1-5.96,2.907,6.61,6.61,0,0,1-5.184-2.229v9.933H99.8V85.988h5.233l.194,2.083a6.594,6.594,0,0,1,5.33-2.471,7.189,7.189,0,0,1,6.057,2.859c1.454,1.938,2.18,4.555,2.18,7.946V96.7Zm-5.62-.388a8.574,8.574,0,0,0-1.018-4.555,3.378,3.378,0,0,0-3.053-1.6,3.705,3.705,0,0,0-3.634,2.035v8.625A3.737,3.737,0,0,0,109.1,102.9C111.768,102.9,113.124,100.717,113.124,96.308Z" transform="translate(-97.668 -44.125)"/>
        <path id="Path_7" data-name="Path 7" class="cls-3" d="M156.322,91.269a16.672,16.672,0,0,0-2.035-.145c-2.132,0-3.537.727-4.167,2.18v13.809H144.5V85.988h5.33l.145,2.52a5.221,5.221,0,0,1,4.7-2.907,6.594,6.594,0,0,1,1.744.242Z" transform="translate(-120.71 -44.125)"/>
        <path id="Path_8" data-name="Path 8" class="cls-3" d="M171.2,96.308a12.091,12.091,0,0,1,1.211-5.572,8.8,8.8,0,0,1,3.489-3.779,10.308,10.308,0,0,1,5.281-1.357,9.583,9.583,0,0,1,6.977,2.616,10.465,10.465,0,0,1,3,7.074l.048,1.454a11.157,11.157,0,0,1-2.713,7.8,10.538,10.538,0,0,1-14.536,0,11.285,11.285,0,0,1-2.713-7.946v-.291Zm5.62.436a8.171,8.171,0,0,0,1.114,4.6,3.766,3.766,0,0,0,3.246,1.6,3.819,3.819,0,0,0,3.2-1.55,8.586,8.586,0,0,0,1.163-5.039,7.618,7.618,0,0,0-1.163-4.555,4.046,4.046,0,0,0-6.444,0A8.653,8.653,0,0,0,176.82,96.744Z" transform="translate(-134.473 -44.125)"/>
        <path id="Path_9" data-name="Path 9" class="cls-3" d="M219.633,77.482v22.24a7.664,7.664,0,0,1-1.841,5.427,6.921,6.921,0,0,1-5.33,1.938,10.275,10.275,0,0,1-2.762-.339V102.29a13.387,13.387,0,0,0,1.793.194c1.7,0,2.568-.921,2.568-2.713V77.482Zm-6.1-5.475a2.743,2.743,0,0,1,.872-2.083,3.7,3.7,0,0,1,4.651,0,2.7,2.7,0,0,1,.824,2.083A2.671,2.671,0,0,1,219,74.091a3.56,3.56,0,0,1-4.555,0A2.5,2.5,0,0,1,213.528,72.007Z" transform="translate(-154.319 -35.619)"/>
        <path id="Path_10" data-name="Path 10" class="cls-3" d="M246.566,107.452a10.385,10.385,0,0,1-7.559-2.859,10.075,10.075,0,0,1-2.907-7.559V96.5a12.505,12.505,0,0,1,1.211-5.669,9.337,9.337,0,0,1,3.489-3.876,9.574,9.574,0,0,1,5.136-1.357,8.794,8.794,0,0,1,6.783,2.713c1.647,1.841,2.471,4.409,2.471,7.752v2.277H241.769a5.253,5.253,0,0,0,1.647,3.295,5.052,5.052,0,0,0,3.489,1.26,6,6,0,0,0,5.088-2.374l2.762,3.1a8.255,8.255,0,0,1-3.44,2.81A10.833,10.833,0,0,1,246.566,107.452Zm-.678-17.3a3.576,3.576,0,0,0-2.713,1.114,6.468,6.468,0,0,0-1.357,3.246h7.849v-.436a4.142,4.142,0,0,0-1.018-2.907A3.585,3.585,0,0,0,245.887,90.155Z" transform="translate(-167.928 -44.125)"/>
        <path id="Path_11" data-name="Path 11" class="cls-3" d="M288.342,102.846a3.623,3.623,0,0,0,2.52-.872,3.136,3.136,0,0,0,1.018-2.277h5.281A7.145,7.145,0,0,1,296,103.621a7.281,7.281,0,0,1-3.149,2.762,9.5,9.5,0,0,1-4.409.969,9.233,9.233,0,0,1-7.122-2.859c-1.744-1.89-2.616-4.555-2.616-7.946V96.16a11.335,11.335,0,0,1,2.568-7.752,9.1,9.1,0,0,1,7.122-2.907,8.907,8.907,0,0,1,6.347,2.229,8.021,8.021,0,0,1,2.423,6.008h-5.281a3.777,3.777,0,0,0-1.018-2.665,3.74,3.74,0,0,0-5.524.436,8.271,8.271,0,0,0-1.018,4.651v.581a8.346,8.346,0,0,0,1.018,4.7A3.415,3.415,0,0,0,288.342,102.846Z" transform="translate(-189.887 -44.073)"/>
        <path id="Path_12" data-name="Path 12" class="cls-3" d="M328.021,75.7v5.184h3.585V85h-3.585V95.517a2.637,2.637,0,0,0,.436,1.7,2.219,2.219,0,0,0,1.7.485,8.329,8.329,0,0,0,1.647-.145v4.264a11.485,11.485,0,0,1-3.392.485c-3.925,0-5.96-1.987-6.057-5.96V85H319.3V80.884h3.052V75.7Z" transform="translate(-210.815 -39.022)"/>
      </g>
      <g id="Seahorse_Icon_1_" transform="translate(0 8.867)">
        <path id="Path_13" data-name="Path 13" class="cls-3" d="M28.423,52.937c0-.1.048-.291.145-.291a.833.833,0,0,0,.581-.921c-.048-.291.048-.436.339-.485a.684.684,0,0,0,.581-.824c-.048-.242.1-.388.242-.581a4.8,4.8,0,0,0,.533-.824c.1-.291-.1-.436-.339-.388a4.191,4.191,0,0,0-.824.339,2.816,2.816,0,0,1-1.211.436,5.385,5.385,0,0,0-3.1,1.308,1.419,1.419,0,0,1-.775.339c-.581.194-1.211.339-1.841.485h-.242a1.72,1.72,0,0,1-.872-1.405.432.432,0,0,1,.242-.388,3.116,3.116,0,0,0,1.793-2.471.408.408,0,0,1,.194-.339,1.923,1.923,0,0,0,.872-1.405c.048-.145.048-.291.145-.388A2.618,2.618,0,0,0,25.9,43.1c0-.1.145-.291.242-.291a2.558,2.558,0,0,0,1.744-1.405.354.354,0,0,1,.485-.194,2.473,2.473,0,0,0,2.035-.145c.1-.048.291-.048.339.048a1.1,1.1,0,0,0,1.26.436c.1-.048.339.048.339.145a.993.993,0,0,0,1.163.63c.242,0,.339.1.339.339a.777.777,0,0,0,.824.775c.485,0,.485,0,.436.485a.817.817,0,0,0,.485.921,1.5,1.5,0,0,0,.388.1c.388.048.436.1.291.485l-.145.581a.818.818,0,0,0,.63,1.114c.727.242.727.242.291.872a1.054,1.054,0,0,0,.291,1.7c.242.145.242.242.1.485a.953.953,0,0,0,0,1.405c.339.388.339.388-.048.727-.1.048-.145.145-.242.194a.7.7,0,0,0-.048,1.017c.048.1.145.145.242.291-.678.194-.775.63-.581,1.211a5.473,5.473,0,0,0-1.26,0,4.559,4.559,0,0,0-1.066.581.722.722,0,0,0,.824-.1,3.2,3.2,0,0,1,.727-.242,2.86,2.86,0,0,1,.678.1,4.123,4.123,0,0,0,2.035-.145c.485-.145.824.048.824.581a2.982,2.982,0,0,1-.1.921,4.558,4.558,0,0,1-.824,1.6c-.242.242-.824.242-1.211.339a.811.811,0,0,1-.727-.194c-.291-.291-.63-.533-.921-.775a1.057,1.057,0,0,0-1.017-.194,1.743,1.743,0,0,1,.436.242c.436.339.824.727,1.26,1.066a.689.689,0,0,1,.1.291,1.12,1.12,0,0,0,.339,1.405.813.813,0,0,1,.194.63c-.339.824-.339,1.017.291,1.7a.426.426,0,0,1,.048.339A1.627,1.627,0,0,0,37.58,64.9c.194.242.145.339-.1.533a.936.936,0,0,0-.291,1.405l.145.291a2.363,2.363,0,0,0-.339.145.887.887,0,0,0-.533.872c.1.436-.1.485-.436.63-.581.145-.727.485-.533,1.018.048.194,0,.291-.145.339a3.341,3.341,0,0,0-.485.194.887.887,0,0,0-.63.872c0,.145-.048.339-.048.388a3.13,3.13,0,0,0-1.26.194c-.291.194-.436.678-.63,1.066a1.3,1.3,0,0,0-1.987.63,4.468,4.468,0,0,0-.388-.242,1.488,1.488,0,0,0-1.55-.1,4.5,4.5,0,0,1-.485.242.515.515,0,0,1-.388-.048,1.542,1.542,0,0,0-1.793-.63c-.242.048-.291-.048-.388-.242A1.743,1.743,0,0,0,24.207,71.4a5.634,5.634,0,0,0-.872-.194c-.194-.048-.242-.1-.291-.291a1.4,1.4,0,0,0-1.066-1.454,1.64,1.64,0,0,0-.388-.145c.727-.921.145-1.744-.291-2.568.436-.1.727-.291.727-.727a1.193,1.193,0,0,0-.048-.581c-.1-.388,0-.533.388-.581a.841.841,0,0,0,.824-.775c0-.388.194-.485.533-.436.678.1,1.26,0,1.5-.775a.527.527,0,0,0,.242.048,1.913,1.913,0,0,0,1.55.194c.1-.048.242.048.291.145a2.369,2.369,0,0,0,1.454.921c.1,0,.194.1.291.1-.1.339-.291.678-.194.969.048.291.339.533.533.727-.194.242-.533.436-.581.727s.194.581.291.921a.819.819,0,0,0-.242.1c-.339.1-.727.194-.775.63,0,.048-.145.145-.194.145a1.989,1.989,0,0,1-1.744-.969c-.1-.194-.1-.339.145-.436a.848.848,0,0,0,.485-.727c-.339-.048-.678-.1-1.066-.145H25.37a.712.712,0,0,0-.291.242.43.43,0,0,0,.194.242,1.014,1.014,0,0,0,.291.194c-.145.194-.291.339-.388.485a.928.928,0,0,0,.581,1.357c.388.048.485.194.533.533a.9.9,0,0,0,1.454.533c.194-.194.339-.145.581-.1.194.1.485.242.678.145a7.316,7.316,0,0,0,1.26-.872c.1-.048.1-.339,0-.485-.291-.436-.242-.581.242-.775a.79.79,0,0,0,.581-1.066,4.241,4.241,0,0,0-.485-1.066c.872-1.066.824-1.5-.291-1.987,0-.1.048-.145.048-.242a.783.783,0,0,0-.339-1.017,1.736,1.736,0,0,0-.533-.194c-.194-.048-.291-.1-.291-.339.048-.775-.1-1.454-1.066-1.6.388-.872.339-1.647-.63-2.083.727-.727.388-1.405-.048-2.035.775-.581.824-1.017.291-1.841A1.071,1.071,0,0,0,28.423,52.937ZM26.63,47.123a.641.641,0,0,0,.63-.63.6.6,0,0,0-.63-.581.641.641,0,0,0-.63.63A.6.6,0,0,0,26.63,47.123Z" transform="translate(-10.98 -30.019)"/>
        <path id="Path_14" data-name="Path 14" class="cls-3" d="M33.384,23.92V66.7H5.62V23.92H33.384M39,18.3H0V72.373H39V18.3Z" transform="translate(0 -18.3)"/>
      </g>
    </g>
  </g>
</svg>
