<svg xmlns="http://www.w3.org/2000/svg" xmlns:xlink="http://www.w3.org/1999/xlink" viewBox="1529 236 324 166">
  <defs>
    <style>
      .cls-1 {
        clip-path: url(#clip-Squiggle_Park);
      }

      .cls-2 {
        fill: #f0592a;
      }

      .cls-3 {
        fill: #fff;
      }
    </style>
    <clipPath id="clip-Squiggle_Park">
      <rect x="1529" y="236" width="324" height="166"/>
    </clipPath>
  </defs>
  <g id="Squiggle_Park" data-name="Squiggle Park" class="cls-1">
    <rect class="cls-3" x="1529" y="236" width="324" height="166"/>
    <rect id="Rectangle_6" data-name="Rectangle 6" class="cls-2" width="324" height="166" transform="translate(1529 236)"/>
    <g id="Group_1" data-name="Group 1" transform="translate(1597.87 288.228)">
      <path id="Path_15" data-name="Path 15" class="cls-3" d="M218.308,47.986c.217-2.242.506-6.051,1.012-9.812.386-3.013,2.989-4.532,6.437-4a4.99,4.99,0,0,1,4.267,5.713c-.386,3.11-.8,6.2-.892,9.33-.072,2.121.94,3.23,2.893,3.423,1.784.193,3.062-.8,3.327-2.869.41-3.11.7-6.22,1.013-9.33a4.77,4.77,0,0,1,2.941-4.219,4.636,4.636,0,0,1,4.894.6,4.275,4.275,0,0,1,1.9,3.833c-.313,3.833-.579,7.69-1.229,11.475-.964,5.521-3.664,8.1-9.161,9.088A18.251,18.251,0,0,1,224,59.557C219.875,57.484,218.019,54.085,218.308,47.986Z" transform="translate(-165.574 -25.819)"/>
      <path id="Path_16" data-name="Path 16" class="cls-3" d="M520.138,13c1.76.024,3.568-.145,4.942,1.35a4.46,4.46,0,0,1,.988,4.894,4.208,4.208,0,0,1-4.026,2.724,11.845,11.845,0,0,0-4.846.7,4.664,4.664,0,0,0-2.772,5.906,4.779,4.779,0,0,0,5.569,3.3c.362-.072.916,0,.868-.579a.852.852,0,0,0-.8-.964,2.889,2.889,0,0,1-2.411-3.351,2.753,2.753,0,0,1,2.628-2.531q2.5-.4,4.99-.723a2.516,2.516,0,0,1,3.013,2.121c.506,2.965.94,5.93,1.326,8.92a2.269,2.269,0,0,1-1.133,2.363c-5.93,3.351-12.126,4.412-18.394,1.229-7.907-4.026-9.064-15.043-2.363-21A18.144,18.144,0,0,1,520.138,13Z" transform="translate(-381.92 -9.83)"/>
      <path id="Path_17" data-name="Path 17" class="cls-3" d="M411.22,51.11c-4.171-.024-7.618-.747-10.68-2.652-4.6-2.869-6.846-7.015-6.244-12.464.6-5.424,3.64-9.064,8.7-10.945,4.749-1.76,9.474-1.205,14.079.7a4.439,4.439,0,0,1-3.038,8.317,12.249,12.249,0,0,0-4.846-.675,4.657,4.657,0,0,0-4.315,5.014,4.89,4.89,0,0,0,4.532,4.653c.41.024.8.072.892-.506.072-.434.072-.7-.41-.964a2.9,2.9,0,0,1-1.446-3.954c.506-1.35,1.663-1.88,3.447-1.615,1.4.217,2.772.386,4.171.579,2.242.289,3.11,1.35,2.821,3.592-.337,2.676-.747,5.328-1.133,7.98a2.739,2.739,0,0,1-2.194,2.411A19.068,19.068,0,0,1,411.22,51.11Z" transform="translate(-299.086 -18.167)"/>
      <path id="Path_18" data-name="Path 18" class="cls-3" d="M9.919,35.723a10.973,10.973,0,0,1-6.461-1.495C-1.074,31.335-1,24.2,3.651,20.9c3.616-2.579,7.787-3.086,12.054-2.724a3.827,3.827,0,0,1,3.279,3.881A3.951,3.951,0,0,1,15.8,26.128a16.011,16.011,0,0,1-2.628.145,6.2,6.2,0,0,0-1.639.338.718.718,0,0,0-.554.7.737.737,0,0,0,.651.747,6.509,6.509,0,0,0,1.181.1,22.439,22.439,0,0,1,5.376.482c5.81,1.446,7.232,8.751,3.4,12.7-2.459,2.555-5.617,3.52-8.968,3.978a21.664,21.664,0,0,1-4.677.217,3.982,3.982,0,1,1,.338-7.955,11.344,11.344,0,0,0,3.713-.217c.458-.145,1.013-.313.94-.916-.072-.651-.6-.771-1.181-.771C11.124,35.723,10.522,35.723,9.919,35.723Z" transform="translate(0 -13.677)"/>
      <path id="Path_19" data-name="Path 19" class="cls-3" d="M684.4,18.695c.386-2.363.844-5.255,1.3-8.148.265-1.663.554-3.327.868-4.966A6.834,6.834,0,0,1,694.308.132c2.411.386,4.822.771,7.232,1.181a4.546,4.546,0,0,1,4.026,4.412,4.48,4.48,0,0,1-3.881,4.388,15.524,15.524,0,0,1-3.93-.482c-.53-.072-.94-.217-1.037.53-.12.747.386.723.868.8.868.121,1.76.265,2.6.458a3.045,3.045,0,0,1,2.29,3.688,2.95,2.95,0,0,1-3.351,2.411c-.964-.1-1.9-.241-2.869-.41-.458-.072-.7,0-.747.482-.048.41-.121.8.482.892,1.229.193,2.459.41,3.664.627a4.166,4.166,0,0,1,3.52,4.46,3.982,3.982,0,0,1-4.339,3.761A56.2,56.2,0,0,1,689,25.71C686.208,24.963,684.4,22.191,684.4,18.695Z" transform="translate(-519.326)"/>
      <path id="Path_20" data-name="Path 20" class="cls-3" d="M632.676,33.909c-.386,2.7-.82,5.738-1.229,8.8-.265,2,.458,2.917,2.483,3.158a4.592,4.592,0,0,1,4.339,3.688,4.648,4.648,0,0,1-4.942,5.665c-2.435-.289-4.846-.675-7.232-1.109a7.215,7.215,0,0,1-5.979-8.438c.651-4.436,1.205-8.872,1.953-13.283a5.2,5.2,0,0,1,6.147-4.363C630.8,28.34,632.7,30.679,632.676,33.909Z" transform="translate(-470.47 -21.193)"/>
      <path id="Path_21" data-name="Path 21" class="cls-3" d="M467.677,185.375a3.22,3.22,0,0,1-3.423,1.615c-1.591-.169-3.182-.482-3.737-2.338-.169-1.037.1-2.1-.024-3.134.169-2.194.265-4.388.554-6.557.169-1.181.145-2.387.338-3.568.313-1.88,1.109-2.989,2.748-3.327a4.157,4.157,0,0,1,4.773,2.1c.7,1.326.024,2.676.072,4a3.679,3.679,0,0,1-.072.723.342.342,0,0,0,.265.458c.169.024.265-.121.337-.265.265-.579.6-1.133.82-1.736.386-.747.747-1.519,1.133-2.242a4.043,4.043,0,0,1,5.762-1.639,3.3,3.3,0,0,1,1.254,4.436c-.675,1.181-1.374,2.338-2.121,3.471a1.032,1.032,0,0,0-.1,1.109c.554,1.446.964,2.989,1.639,4.388a3.523,3.523,0,0,1-3.833,5.063c-2.121-.337-3.351-1.254-3.809-3.327-.41-1.832-.94-3.616-1.422-5.424-.41-.145-.338.169-.338.386q-.181,1.627-.289,3.255A5.931,5.931,0,0,1,467.677,185.375Z" transform="translate(-349.372 -127.434)"/>
      <path id="Path_22" data-name="Path 22" class="cls-3" d="M338.2,17a5.423,5.423,0,1,1,10.824-.675c.434,4.99.868,9.98,1.35,14.971a5.417,5.417,0,0,1-4.436,5.93,5.255,5.255,0,0,1-6.22-4.315c-.458-3.327-.675-6.7-.988-10.053C338.535,20.828,338.366,18.8,338.2,17Z" transform="translate(-256.583 -8.45)"/>
      <path id="Path_23" data-name="Path 23" class="cls-3" d="M117.789,24.635a12.853,12.853,0,0,0,5.183-14.272c-1.736-6.075-7.618-10.2-14.754-10.2a12.272,12.272,0,0,0-2.724.241c-7.883,1.4-12.922,9.064-10.68,16.562,1.639,5.521,5.641,8.582,11.113,9.86a2.158,2.158,0,0,1,1.422.94,28.388,28.388,0,0,0,3.64,4.146,4.478,4.478,0,0,0,6.027-.1,4.191,4.191,0,0,0,.506-5.762C116.849,25.31,117.09,25.117,117.789,24.635Zm-8.92-6.822a3.861,3.861,0,0,1-3.954-3.93,3.967,3.967,0,0,1,3.905-4.05,4.059,4.059,0,0,1,4.05,4.05A3.993,3.993,0,0,1,108.87,17.813Z" transform="translate(-71.468 -0.082)"/>
      <path id="Path_24" data-name="Path 24" class="cls-3" d="M393.311,174.505c-.554-.675-1.085-1.374-1.615-2.073a.952.952,0,0,1,.024-1.35,5.278,5.278,0,0,0-1.736-7.931,9.237,9.237,0,0,0-5.038-.82c-2.242.217-4.412.82-6.63,1.109-1.929.241-3.64,2.724-2.845,4.58a14.484,14.484,0,0,1,.579,3.11c.458.554.362,1.254.482,1.88a24.907,24.907,0,0,1,.482,2.989c.072.482.145.94.217,1.422a3.194,3.194,0,0,1,.458,1.543,3.553,3.553,0,0,0,1.422,2.579,4.392,4.392,0,0,0,6.388-2.194c.313-.892-.289-1.615-.217-2.459.024-.193-.289-.458,0-.627.338-.193.482.121.651.362.579.82,1.085,1.663,1.736,2.435a3.957,3.957,0,0,0,5.593.313C394.685,178.194,394.685,176.217,393.311,174.505Zm-7.353-5.328a1.368,1.368,0,0,1-1.326,1.567c-.82.072-.579-.651-.675-1.109-.024-.121-.048-.241-.072-.337-.048-.386-.579-.844-.1-1.157a1.56,1.56,0,0,1,1.495-.024A1.012,1.012,0,0,1,385.958,169.177Z" transform="translate(-284.721 -123.121)"/>
      <path id="Path_25" data-name="Path 25" class="cls-3" d="M318.216,183.241a3.885,3.885,0,0,1-.506-2.194c-.241-1.278-.482-2.555-.7-3.833-.337-.362-.289-.82-.362-1.254-.241-.506-.145-1.109-.41-1.639.048-.506-.241-.964-.193-1.471-.289-1.856-.651-3.713-2.821-4.291-.988-.265-2.049-.362-3.062-.53a3.56,3.56,0,0,0-3.833,2.049c-2.025,3.447-4.05,6.895-6,10.39a3.6,3.6,0,0,0-.82,2.338,3.688,3.688,0,0,0,2.17,2.941c1.3.554,2.8.675,3.688-.434,1.109-1.35,2.266-1.061,3.592-.8a12.017,12.017,0,0,0,1.3.169c.747.313.482,1.205.988,1.688a4.5,4.5,0,0,0,5.038,1.35C317.974,186.977,318.625,185.459,318.216,183.241Zm-8.172-3.447c-1.037.048-1.639-.217-.988-1.4a9.1,9.1,0,0,0,.53-1.422A3.04,3.04,0,0,1,310.043,179.793Z" transform="translate(-227.199 -127.444)"/>
      <path id="Path_26" data-name="Path 26" class="cls-3" d="M253.154,171.9c-.1-.313-.362-.6-.217-.988a6.067,6.067,0,0,0-6.123-4.846c-3.158-.121-6.075.844-9.016,1.736a3.132,3.132,0,0,0-2,3.954c.844,3.254,1.712,6.509,2.579,9.763.313,1.205.362,2.507,1.278,3.471,1.326,1.374,3.158,1.495,5.207.386,1.519-.82,2.025-2.17,1.567-4.315a1.584,1.584,0,0,1-.362-1.446c.53-.169,1.085-.313,1.591-.506C251.467,177.663,253.3,175.277,253.154,171.9Zm-7.931,2.8c-.8.265-.675-.554-.844-.964-.121-.337-.193-.675-.289-1.013-.193-.627.024-.916.675-.868a1.405,1.405,0,0,1,1.567,1.157A1.386,1.386,0,0,1,245.223,174.7Z" transform="translate(-178.772 -125.99)"/>
    </g>
  </g>
</svg>
