<svg xmlns="http://www.w3.org/2000/svg" xmlns:xlink="http://www.w3.org/1999/xlink" viewBox="1529 472 324 166">
  <defs>
    <style>
      .cls-1 {
        clip-path: url(#clip-Impact_Hub);
      }

      .cls-2 {
        fill: #822b26;
      }

      .cls-3 {
        fill: #fff;
      }
    </style>
    <clipPath id="clip-Impact_Hub">
      <rect x="1529" y="472" width="324" height="166"/>
    </clipPath>
  </defs>
  <g id="Impact_Hub" data-name="Impact Hub" class="cls-1">
    <rect class="cls-3" x="1529" y="472" width="324" height="166"/>
    <rect id="Rectangle_6" data-name="Rectangle 6" class="cls-2" width="324" height="166" transform="translate(1529 472)"/>
    <g id="impact_hub_logo" transform="translate(1651.195 515.195)">
      <path id="Subtraction_1" data-name="Subtraction 1" class="cls-3" d="M80.31,80.311H0V0H80.31V80.31ZM32.281,44.894V59.075c0,4.953,3.224,7.91,8.623,7.91a9.387,9.387,0,0,0,6.324-2.049,7.446,7.446,0,0,0,2.369-5.79V44.894H44.609v13.9a3.915,3.915,0,0,1-1,2.859,4.124,4.124,0,0,1-5.389-.027A3.926,3.926,0,0,1,37.2,58.79v-13.9Zm21.806,0V66.415h9.122a7.6,7.6,0,0,0,5.059-1.6,5.59,5.59,0,0,0,1.853-4.383,5.1,5.1,0,0,0-1.274-3.545A4.972,4.972,0,0,0,65.7,55.369a5.022,5.022,0,0,0,3-1.576,4.923,4.923,0,0,0,1.131-3.34c0-3.429-2.649-5.559-6.912-5.559ZM15.392,57.863H22.8v8.552h4.988V44.894H22.8v8.694H15.392V44.894H10.4V66.415h4.988V57.864ZM55.3,31.283a5.419,5.419,0,0,0-3.875,1.443,5.362,5.362,0,0,0,0,7.375A5.419,5.419,0,0,0,55.3,41.545a5.956,5.956,0,0,0,3.643-1.06,4,4,0,0,0,1.559-2.93H57.507a1.959,1.959,0,0,1-2.138,1.425,2.265,2.265,0,0,1-2.351-2.565,2.264,2.264,0,0,1,2.351-2.565,1.959,1.959,0,0,1,2.138,1.425H60.5a4.189,4.189,0,0,0-1.585-2.931A5.872,5.872,0,0,0,55.3,31.283ZM42.471,40.12h3.064l.285,1.14h2.993l-3.278-9.62H42.471l-3.278,9.62h2.993l.285-1.139ZM24.726,35.207h0v6.052h2.708v-9.62H23.872l-2,6.271L19.81,31.639H16.247v9.62h2.708V35.131l1.852,6.128h2.138ZM10.4,31.639v9.62h2.851v-9.62Zm51.664,0v2.423h2.423v7.126h2.85V34.062h2.494V31.639Zm-31.711,0v9.549h2.851V38.765h1.782a3.563,3.563,0,0,0,0-7.126Zm31.782,31H59V57.151h3.136a3.21,3.21,0,0,1,2.165.73,2.462,2.462,0,0,1,.828,1.906,2.8,2.8,0,0,1-.8,2.094A3.109,3.109,0,0,1,62.139,62.638Zm-.286-8.979H59.075V48.385h2.779c1.919,0,3.064.986,3.064,2.637S63.772,53.659,61.854,53.659ZM45.036,38.053h-2l1-3.705,1,3.7Zm-10.689-1.5H33.136V33.849h1.212A1.291,1.291,0,0,1,35.63,35.2,1.249,1.249,0,0,1,34.348,36.557Z" transform="translate(0)"/>
    </g>
  </g>
</svg>
